<svg width="24" height="24" viewBox="0 0 24 24" fill="none" xmlns="http://www.w3.org/2000/svg">
<path d="M12 2C6.48 2 2 6.48 2 12C2 17.52 6.48 22 12 22C17.52 22 22 17.52 22 12C22 6.48 17.52 2 12 2ZM12 20C7.59 20 4 16.41 4 12C4 7.59 7.59 4 12 4C16.41 4 20 7.59 20 12C20 16.41 16.41 20 12 20Z" fill="currentColor"/>
<path d="M15.5 8.5C15.5 7.67 14.83 7 14 7C13.17 7 12.5 7.67 12.5 8.5C12.5 9.33 13.17 10 14 10C14.83 10 15.5 9.33 15.5 8.5Z" fill="currentColor"/>
<path d="M8.5 8.5C8.5 7.67 7.83 7 7 7C6.17 7 5.5 7.67 5.5 8.5C5.5 9.33 6.17 10 7 10C7.83 10 8.5 9.33 8.5 8.5Z" fill="currentColor"/>
<path d="M12 14C10.34 14 9 15.34 9 17H15C15 15.34 13.66 14 12 14Z" fill="currentColor"/>
</svg>
